<svg width="86" height="86" viewBox="0 0 86 86" fill="none" xmlns="http://www.w3.org/2000/svg">
<path d="M80.331 51.6775C78.9982 51.6484 77.9867 52.2133 77.2006 53.0945C75.6281 66.8751 69.1265 80.793 43.5875 80.793C18.4194 80.793 11.0219 66.2604 9.02777 53.0568C8.24637 52.1973 7.24528 51.6488 5.93177 51.6775C-0.833176 51.8253 -1.08295 40.3908 5.682 40.243C9.18616 40.243 13.2287 31.4487 21.2802 28.2512L17.5673 42.4666L16.5301 43.1455H69.733L68.6958 42.4666L64.9829 28.2512C73.0344 31.4487 77.0769 40.243 80.5811 40.243C87.3457 40.3907 87.0959 51.8251 80.331 51.6775Z" fill="#2B3B47"/>
<path d="M77.6765 43.1453C77.6765 53.7799 62.1574 62.4011 43.0135 62.4011C23.8696 62.4011 8.35059 53.7799 8.35059 43.1453C8.35059 32.5107 23.8697 23.8895 43.0136 23.8895C62.1575 23.8895 77.6765 32.5107 77.6765 43.1453Z" fill="#597B91"/>
<path d="M73.4365 45.6446C73.4365 54.1741 59.8156 61.0887 43.0135 61.0887C26.2114 61.0887 12.5903 54.1742 12.5903 45.6446C12.5903 37.115 26.2113 30.2006 43.0133 30.2006C59.8154 30.2006 73.4365 37.1152 73.4365 45.6446Z" fill="#F9E7C0"/>
<path d="M44.3419 29.2682C45.6342 25.3622 43.0735 25.7479 40.9492 29.8905C40.9221 29.8867 40.895 29.8833 40.8678 29.8803C42.0723 25.9953 39.2517 26.6679 37.1135 31.3117C38.3975 27.7729 36.2228 27.8668 34.0303 30.5419C34.4947 27.7932 32.0731 28.6539 30.1416 32.7052C29.2559 32.5501 28.8845 33.0762 29.4162 34.2065C29.2669 34.262 29.1189 34.321 28.9724 34.3835C26.1695 32.1324 24.3398 32.7905 26.5414 35.7422L26.5014 35.7699C23.2089 32.4631 20.6094 32.7482 22.7282 35.8131C22.6899 35.8247 22.6509 35.8378 22.6109 35.8522C19.4944 32.88 17.1229 33.1901 19.0503 36.0679C18.52 36.1065 17.8928 36.1976 17.1497 36.3558C11.6862 37.5185 13.6887 39.8917 19.1 38.9642C16.6087 42.2382 19.1556 42.7055 22.5108 39.478C22.5357 39.4906 22.5602 39.5025 22.5845 39.5143C20.1831 42.7971 23.0691 43.0774 26.6002 39.3804C24.2362 42.3099 26.3234 42.9277 29.266 41.1101C27.7862 43.8299 31.1207 43.4958 34.707 39.1461C35.738 39.133 37.0423 38.9402 38.5409 38.4789C38.5409 38.4789 38.8918 37.8369 38.6835 37.2912C40.4403 37.3471 40.6335 36.1623 37.9772 34.4888C42.4129 36.8204 45.029 35.7074 41.9345 33.4274C41.967 33.4039 41.9997 33.3789 42.0326 33.3523C45.9456 35.1506 48.0879 34.0869 45.33 31.9915C45.819 31.7825 46.3825 31.4928 47.0339 31.1017C51.8232 28.2266 49.1582 26.6328 44.3419 29.2682ZM24.2002 37.5971L24.2096 37.585L24.2513 37.6275L24.236 37.6423L24.2002 37.5971ZM28.0958 37.6073C28.11 37.5882 28.1245 37.5699 28.1388 37.5506L28.1384 37.5482C28.1801 37.5887 28.2211 37.6273 28.2619 37.6658C28.2374 37.6866 28.2128 37.7076 28.1883 37.7289C28.1577 37.6882 28.1268 37.6477 28.0958 37.6073ZM36.148 33.3893C36.1905 33.418 36.2327 33.4461 36.275 33.4741C36.2676 33.4968 36.2601 33.519 36.2528 33.5416L36.2538 33.5438C36.2013 33.5191 36.15 33.496 36.0988 33.4728C36.1153 33.4452 36.1317 33.4175 36.148 33.3893ZM39.914 32.1871L39.9626 32.218L39.9576 32.2325C39.9396 32.2233 39.9223 32.2149 39.9043 32.206L39.914 32.1871ZM35.6164 36.6566C35.3571 36.4485 35.0472 36.2295 34.6852 36.0014C35.1039 36.2224 35.5326 36.4238 35.97 36.6051C35.8568 36.6197 35.7383 36.6371 35.6164 36.6566Z" fill="#2ABA34"/>
<path d="M56.5005 33.712C63.5552 33.712 63.5552 40.8751 56.5005 40.8751C49.4458 40.8751 49.4458 33.712 56.5005 33.712ZM61.7915 49.2263C68.8462 49.2263 68.8462 42.0633 61.7915 42.0633C54.7368 42.0633 54.7368 49.2263 61.7915 49.2263ZM58.1802 56.2222C65.2349 56.2222 65.2349 49.0592 58.1802 49.0592C51.1255 49.0592 51.1255 56.2222 58.1802 56.2222Z" fill="#F9F9F7"/>
<path d="M53.8642 47.2832C53.7326 47.4587 53.5415 47.5803 53.3267 47.6252C53.112 47.67 52.8882 47.6351 52.6973 47.5269L52.6246 47.4856L52.2144 47.2529C52.0802 47.1836 51.9102 47.1071 51.7212 47.0148C51.5235 46.9348 51.3025 46.8406 51.0546 46.7544C50.8033 46.6744 50.5359 46.5802 50.2409 46.5155C49.9522 46.4326 49.6369 46.3889 49.3178 46.3283L48.8258 46.2743C48.6607 46.2508 48.492 46.2476 48.3231 46.2433L48.0693 46.2347L47.9421 46.2302L47.8148 46.2366L47.3065 46.2592C47.1379 46.2722 46.9713 46.3012 46.8055 46.32L46.5579 46.3513L46.3163 46.4052C46.1566 46.442 45.9974 46.4714 45.8428 46.5105L45.3944 46.6533C45.3211 46.677 45.2479 46.6973 45.1768 46.7223L44.9709 46.811L44.5742 46.9783C44.3232 47.1023 44.0956 47.238 43.8811 47.3487C43.694 47.4748 43.5343 47.5899 43.3858 47.6858L43.2788 47.7558L43.1547 47.8571L42.936 48.0355L42.5209 48.3741C41.8007 48.9617 40.7405 48.8542 40.1529 48.1339C39.5653 47.4137 39.6728 46.3535 40.3931 45.7659C40.4453 45.7232 40.4996 45.6843 40.5552 45.6488L40.5649 45.6429L41.0188 45.3586C41.1438 45.2804 41.2688 45.2022 41.3937 45.1238L41.5842 45.0218C41.8474 44.8836 42.1467 44.7238 42.4702 44.5695C42.7895 44.4462 43.1301 44.3027 43.4985 44.1783L44.0753 44.0155L44.3728 43.9335C44.4742 43.9114 44.578 43.8944 44.6817 43.8747L45.3132 43.7617C45.5277 43.7348 45.7459 43.7199 45.9644 43.6996L46.2932 43.6718L46.6241 43.67C46.8448 43.6717 47.0662 43.6648 47.2859 43.6757L47.9418 43.7288L48.1045 43.7426L48.2653 43.7676L48.5844 43.8183C48.7962 43.8514 49.0057 43.884 49.2083 43.9374C49.4117 43.9861 49.6126 44.0313 49.8081 44.0824C49.8534 44.0966 49.8979 44.1102 49.9428 44.1242C49.7481 43.9319 49.524 43.7528 49.3025 43.5608L48.9041 43.267C48.7732 43.1637 48.6289 43.0764 48.485 42.9875L48.2698 42.8525L48.1622 42.7848L48.0489 42.7263L47.5979 42.4907C47.4458 42.4171 47.287 42.3585 47.1342 42.2915L46.9044 42.194L46.6686 42.1193C46.512 42.0708 46.3595 42.0162 46.2063 41.9725L45.7468 41.8707C45.6717 41.8544 45.5979 41.8351 45.524 41.821L45.3013 41.7943L44.8742 41.7397C44.5948 41.7209 44.3298 41.7237 44.0889 41.7118C43.8637 41.7269 43.6678 41.7461 43.4913 41.7545L43.3635 41.7612L43.2052 41.7864L42.9266 41.8307L42.3976 41.9149C41.4797 42.061 40.617 41.4355 40.4709 40.5176C40.3247 39.5996 40.9502 38.7369 41.8682 38.5908C41.9349 38.5802 42.0012 38.5737 42.0671 38.571L42.0785 38.5708L42.6136 38.553L42.8957 38.5436L43.0557 38.5382L43.2717 38.5458C43.5689 38.5585 43.9078 38.5708 44.2651 38.5999C44.6032 38.6538 44.9697 38.7008 45.3507 38.7782L45.9312 38.9274L46.2297 39.006C46.3286 39.0377 46.4267 39.0752 46.5263 39.1103L47.1291 39.33C47.328 39.4145 47.5244 39.5113 47.7234 39.6035L48.0216 39.7447L48.3086 39.9093C48.4986 40.0217 48.6934 40.1269 48.878 40.2468L49.4186 40.6222L49.5523 40.7159L49.6787 40.8182L49.9292 41.0225C50.0956 41.1575 50.2604 41.2909 50.4087 41.4389C50.5601 41.5831 50.7112 41.7232 50.8545 41.8655C51.1273 42.1648 51.3981 42.4445 51.6206 42.7399C51.8571 43.0223 52.0513 43.3134 52.2339 43.5769C52.4113 43.845 52.5582 44.1023 52.6897 44.3276C52.8097 44.5629 52.9168 44.7641 52.9973 44.9358L53.2314 45.4877C53.265 45.567 53.2857 45.6485 53.2958 45.73L53.6828 46.02C53.7777 46.091 53.8576 46.18 53.9181 46.282C53.9786 46.3839 54.0184 46.4967 54.0352 46.614C54.0521 46.7313 54.0456 46.8508 54.0163 46.9656C53.9869 47.0804 53.9353 47.1883 53.8642 47.2832Z" fill="#FF473E"/>
<path d="M39.2673 57.5302C33.9499 56.0658 37.3356 44.6607 43.2296 45.2864C49.1237 45.9121 59.5564 63.1176 39.2673 57.5302ZM34.5404 46.6785C37.0225 41.296 23.757 36.9773 20.6654 41.5447C8.86911 58.972 32.0585 52.0611 34.5404 46.6785Z" fill="#E2AF8D"/>
<path d="M29.8009 58.2176C24.4835 56.7533 27.8692 45.3482 33.7633 45.9739C39.6575 46.5996 50.09 63.8051 29.8009 58.2176Z" fill="#D19878"/>
<path d="M39.3787 2.09828L39.6673 2.12734C39.8583 2.15891 40.1176 2.14128 40.5075 2.30135C40.6956 2.37022 40.9256 2.43186 41.1185 2.56489C41.3193 2.69037 41.5622 2.80526 41.7546 3.00816L42.0738 3.30429C42.1821 3.40843 42.2617 3.53962 42.3607 3.66391C42.5698 3.90965 42.7008 4.21452 42.8533 4.5303C43.1021 5.17429 43.2832 5.93452 43.1953 6.7458C43.1172 7.54886 42.8469 8.41441 42.2711 9.15196C41.7157 9.90143 40.8283 10.464 39.8944 10.6781L39.542 10.7648C39.4988 10.7816 39.3633 10.8038 39.2783 10.8232L38.987 10.8834L38.7729 10.9529C38.4917 11.032 38.1757 11.1882 37.9024 11.3408C37.3532 11.6695 36.8736 12.1179 36.5402 12.6716C36.2105 13.2228 35.9619 13.8373 35.8747 14.4727C35.7815 15.1036 35.785 15.7392 35.906 16.3214C36.0272 16.9024 36.2318 17.4352 36.5004 17.884C36.751 18.2957 37.0638 18.6662 37.4276 18.9823C37.7568 19.2722 38.0996 19.4631 38.3859 19.6196C38.6815 19.7545 38.9219 19.8655 39.0945 19.9142L39.3567 20.0069L39.3801 20.0152C39.4339 20.0344 39.4789 20.0724 39.507 20.1222C39.5351 20.1719 39.5443 20.2301 39.533 20.2861C39.5217 20.3421 39.4907 20.3922 39.4455 20.4271C39.4003 20.4621 39.3441 20.4797 39.287 20.4766L38.9857 20.4589C38.7875 20.4509 38.4976 20.4134 38.1299 20.3291C37.7696 20.2268 37.3152 20.098 36.8521 19.8151C36.3848 19.546 35.8868 19.1612 35.46 18.6319C34.5926 17.5931 34.0081 15.9886 34.1747 14.2705C34.2513 13.4165 34.4934 12.5268 34.9712 11.7269C35.435 10.9225 36.1331 10.2204 36.9487 9.72171C37.3762 9.49243 37.7849 9.29927 38.2727 9.16707L38.6309 9.06948L38.9234 9.0154C39.032 8.9939 39.0927 8.98735 39.2405 8.95342L39.4624 8.89967C40.0516 8.76714 40.5868 8.51082 40.9513 8.06654C41.3199 7.63621 41.5736 7.10223 41.6883 6.54979C41.804 5.99347 41.7501 5.44203 41.6465 4.94988C41.569 4.71204 41.5064 4.47268 41.3871 4.27566C41.3322 4.17521 41.2949 4.06183 41.2297 3.97449L41.0366 3.71783C40.9257 3.53239 40.7542 3.43044 40.6267 3.29405C40.4969 3.14875 40.3531 3.0861 40.2283 3.00044C39.9997 2.82054 39.7032 2.73555 39.5344 2.66652L39.265 2.55935C39.2358 2.54771 39.2091 2.53042 39.1865 2.50847C39.1639 2.48651 39.1459 2.46033 39.1335 2.43141C39.121 2.40249 39.1144 2.37141 39.114 2.33992C39.1135 2.30844 39.1193 2.27719 39.131 2.24794C39.1505 2.19951 39.1852 2.15873 39.2299 2.13174C39.2745 2.10475 39.3268 2.09301 39.3787 2.09828ZM25.5252 10.9702C25.4731 10.8885 25.3907 10.8309 25.2961 10.8099C25.2015 10.7889 25.1025 10.8063 25.0208 10.8584L24.8278 10.9813C24.7009 11.076 24.5197 11.1447 24.2804 11.3665L23.8907 11.7172L23.4941 12.1651C23.2332 12.5051 22.9737 12.9192 22.7446 13.4068C22.5437 13.9021 22.362 14.4648 22.2891 15.0849C22.1888 15.7041 22.2384 16.3724 22.3502 17.0537C22.467 17.7389 22.7426 18.4176 23.1099 19.0599C23.3113 19.3707 23.5136 19.6875 23.7706 19.9649C23.8923 20.1092 24.0143 20.2544 24.1582 20.3775L24.532 20.7106C24.7481 20.9111 25.0572 21.1523 25.1474 21.3001C25.289 21.4442 25.4267 21.6587 25.5662 21.8603C25.807 22.2858 26.0151 22.7237 26.1366 23.1829C26.2479 23.6404 26.3353 24.1 26.3296 24.5444C26.3457 24.9892 26.2985 25.4142 26.2192 25.8054C26.1616 25.9933 26.1371 26.1907 26.0753 26.364C26.0101 26.5352 25.9572 26.7065 25.8915 26.8609L25.6946 27.2958C25.6192 27.4218 25.549 27.5402 25.4882 27.6522C25.3718 27.8816 25.2321 28.0254 25.1598 28.1497L25.0376 28.3323L25.0058 28.3795C24.9607 28.4468 24.9393 28.5272 24.9449 28.608C24.9506 28.6889 24.983 28.7655 25.0371 28.8259C25.0911 28.8862 25.1637 28.9269 25.2435 28.9414C25.3232 28.9559 25.4054 28.9434 25.4773 28.9059C25.4773 28.9059 25.5536 28.8661 25.6965 28.792C25.8339 28.7096 26.0649 28.6148 26.2982 28.416C26.4204 28.3224 26.5592 28.2184 26.6994 28.0928L27.1219 27.65C27.4015 27.3121 27.678 26.8928 27.9187 26.3951C28.1241 25.8885 28.3302 25.3137 28.3942 24.6761C28.4891 24.0417 28.4421 23.3546 28.3049 22.6629C28.1631 21.969 27.8677 21.2827 27.4701 20.6493C27.2539 20.3437 27.0455 20.0372 26.7429 19.7352C26.4381 19.3925 26.2316 19.2625 25.9832 19.0398L25.6448 18.7542C25.5406 18.6822 25.4561 18.5903 25.3695 18.5003C25.1825 18.3318 25.0384 18.1274 24.8842 17.9312C24.6131 17.5144 24.385 17.0688 24.2387 16.6009C24.102 16.1331 24.0168 15.6549 24.0175 15.1951C23.9925 14.7326 24.064 14.2957 24.1477 13.8934C24.2437 13.4936 24.3746 13.1335 24.5226 12.8244L24.7455 12.3949L24.9635 12.066C25.074 11.8596 25.2631 11.69 25.3461 11.5778L25.4946 11.4039C25.5455 11.3444 25.5759 11.2702 25.5814 11.1921C25.5869 11.114 25.5672 11.0363 25.5252 10.9702ZM58.3656 10.9702C58.3135 10.8885 58.2311 10.8309 58.1365 10.8099C58.0419 10.7889 57.9429 10.8063 57.8612 10.8584L57.6682 10.9813C57.5414 11.076 57.3601 11.1447 57.1208 11.3665L56.7311 11.7172L56.3345 12.1651C56.0736 12.5051 55.8141 12.9192 55.585 13.4068C55.3841 13.9021 55.2024 14.4648 55.1295 15.0849C55.0292 15.7041 55.0788 16.3724 55.1906 17.0537C55.3074 17.7389 55.583 18.4176 55.9504 19.0599C56.1517 19.3707 56.354 19.6875 56.611 19.9649C56.7327 20.1092 56.8547 20.2544 56.9986 20.3775L57.3724 20.7106C57.5886 20.9111 57.8976 21.1523 57.9878 21.3001C58.1294 21.4442 58.2671 21.6587 58.4066 21.8603C58.6474 22.2858 58.8555 22.7237 58.977 23.1829C59.0883 23.6404 59.1757 24.1 59.17 24.5444C59.1861 24.9892 59.1389 25.4142 59.0596 25.8054C59.002 25.9933 58.9775 26.1907 58.9157 26.364C58.8505 26.5352 58.7976 26.7065 58.7319 26.8609L58.5351 27.2958C58.4596 27.4218 58.3894 27.5402 58.3286 27.6522C58.2122 27.8816 58.0725 28.0254 58.0002 28.1497L57.878 28.3323L57.8462 28.3795C57.8011 28.4468 57.7797 28.5272 57.7853 28.608C57.791 28.6889 57.8234 28.7655 57.8775 28.8259C57.9315 28.8862 58.0041 28.9269 58.0839 28.9414C58.1636 28.9559 58.2459 28.9434 58.3177 28.9059C58.3177 28.9059 58.394 28.8661 58.5369 28.792C58.6743 28.7096 58.9053 28.6148 59.1386 28.416C59.2608 28.3224 59.3996 28.2184 59.5398 28.0928L59.9623 27.65C60.242 27.3121 60.5184 26.8928 60.7591 26.3951C60.9646 25.8885 61.1707 25.3137 61.2346 24.6761C61.3296 24.0417 61.2825 23.3546 61.1453 22.6629C61.0035 21.969 60.7081 21.2827 60.3105 20.6493C60.0943 20.3437 59.8859 20.0372 59.5834 19.7352C59.2785 19.3925 59.0721 19.2625 58.8236 19.0398L58.4852 18.7542C58.381 18.6822 58.2965 18.5903 58.2099 18.5003C58.0229 18.3318 57.8788 18.1274 57.7246 17.9312C57.4535 17.5144 57.2254 17.0688 57.0791 16.6009C56.9424 16.1331 56.8572 15.6549 56.8579 15.1951C56.8329 14.7326 56.9044 14.2957 56.9881 13.8934C57.0841 13.4936 57.215 13.1335 57.363 12.8244L57.5859 12.3949L57.8039 12.066C57.9144 11.8596 58.1035 11.69 58.1865 11.5778L58.335 11.4039C58.3858 11.3444 58.4162 11.2702 58.4217 11.1921C58.4272 11.114 58.4075 11.0363 58.3656 10.9702ZM46.3021 27.5949C46.3512 27.5596 46.3844 27.5062 46.3942 27.4465C46.404 27.3867 46.3897 27.3255 46.3545 27.2763L46.2712 27.1602C46.2235 27.0858 46.1207 26.9701 46.0565 26.8359C45.9744 26.7094 45.8941 26.5386 45.8081 26.342C45.736 26.1428 45.6619 25.9194 45.6426 25.6735C45.6021 25.4317 45.6288 25.1695 45.6881 24.911C45.7471 24.6511 45.8674 24.3928 46.037 24.1534C46.2157 23.9012 46.4333 23.6789 46.6817 23.495C46.7443 23.4448 46.808 23.3952 46.8809 23.3539L47.1333 23.192C47.3018 23.0714 47.4399 23.0059 47.6507 22.7944C48.0536 22.4279 48.2861 22.056 48.507 21.6433C48.7206 21.2375 48.835 20.8061 48.9158 20.3913C48.9973 19.9749 48.9948 19.564 48.9676 19.1815C48.9363 18.7979 48.8505 18.4418 48.7428 18.1243C48.6421 17.8356 48.5073 17.56 48.3414 17.3031C48.1885 17.0761 48.038 16.894 47.8912 16.763C47.7634 16.6198 47.6201 16.5453 47.5405 16.4841L47.412 16.3966C47.3702 16.368 47.32 16.3541 47.2695 16.3574C47.2189 16.3606 47.1709 16.3807 47.1331 16.4144C47.0953 16.4482 47.0699 16.4936 47.061 16.5435C47.0521 16.5934 47.0602 16.6448 47.084 16.6896L47.1034 16.7265L47.1668 16.8466C47.2007 16.9303 47.2783 17.0241 47.3315 17.176C47.3937 17.3201 47.4666 17.4903 47.5185 17.6984C47.5753 17.9023 47.6288 18.1336 47.6514 18.3918C47.6925 18.6449 47.6856 18.9269 47.6794 19.218C47.6732 19.5113 47.6157 19.8148 47.5551 20.122C47.4869 20.4285 47.3766 20.7314 47.2434 21.0188C47.1122 21.2917 46.9131 21.5939 46.7339 21.7599C46.6807 21.8435 46.4757 21.9806 46.3345 22.0985L46.3271 22.1042C46.317 22.1112 46.4037 22.0528 46.3649 22.079L46.3605 22.0822L46.3432 22.0946L46.3089 22.1195L46.2402 22.1694L46.1042 22.2695C46.012 22.3328 45.9263 22.4077 45.8425 22.4843C45.5 22.7766 45.204 23.132 44.998 23.5271C44.7903 23.9178 44.6432 24.3375 44.6182 24.7502C44.5915 25.1587 44.6257 25.5486 44.7378 25.8783C44.8392 26.2117 44.9961 26.4825 45.1396 26.7102C45.3005 26.9254 45.4511 27.1024 45.5952 27.2368C45.7338 27.3819 45.8423 27.4401 45.9166 27.5037L46.0301 27.5904C46.069 27.6202 46.1164 27.6367 46.1653 27.6375C46.2143 27.6384 46.2622 27.6234 46.3021 27.5949Z" fill="#D7F4F7"/>
</svg>
