<svg width="74" height="74" viewBox="0 0 74 74" fill="none" xmlns="http://www.w3.org/2000/svg">
<g clip-path="url(#clip0_6_411)">
<path d="M5.11439 68.89C10.0683 73.8439 15.6039 76.3455 20.9175 71.0319C24.6895 67.26 23.7295 60.1848 18.7736 55.2268C13.8176 50.2729 6.74445 49.3129 2.97045 53.0849C-2.34316 58.3985 0.15845 63.932 5.11439 68.89ZM18.5845 55.4179C22.3009 59.1344 23.0203 64.4418 20.1919 67.2723C16.2082 71.256 12.056 69.3793 8.33751 65.6628C4.61901 61.9484 2.74434 57.7983 6.73006 53.8105C9.55851 50.982 14.866 51.7015 18.5845 55.4179ZM68.888 5.11231C63.9341 0.156365 58.4006 -2.34319 53.0849 2.97042C49.313 6.74237 50.2729 13.8176 55.2288 18.7735C60.1848 23.7295 67.2559 24.6894 71.032 20.9154C76.3456 15.6018 73.8439 10.0662 68.888 5.11231ZM55.4179 18.5824C51.7015 14.8659 50.9821 9.56053 53.8105 6.73003C57.7942 2.74637 61.9464 4.62103 65.6649 8.33748C69.3834 12.0539 71.2581 16.2041 67.2723 20.1898C64.4439 23.0183 59.1364 22.2988 55.4179 18.5824Z" fill="#292F33"/>
<path d="M37.0001 71.9444C56.2994 71.9444 71.9445 56.2993 71.9445 37C71.9445 17.7007 56.2994 2.05554 37.0001 2.05554C17.7008 2.05554 2.05566 17.7007 2.05566 37C2.05566 56.2993 17.7008 71.9444 37.0001 71.9444Z" fill="#292F33"/>
<path d="M64.9556 37C64.9556 52.4393 52.4393 64.9556 37 64.9556C21.5607 64.9556 9.04443 52.4393 9.04443 37C9.04443 21.5607 21.5607 9.04443 37 9.04443C52.4393 9.04443 64.9556 21.5607 64.9556 37Z" fill="#FFAC33"/>
<path d="M39.9703 21.9225L34.7513 16.7034C35.1421 16.249 35.3405 15.6603 35.3043 15.0621C35.2682 14.4639 35.0005 13.9032 34.5579 13.4992C34.1153 13.0951 33.5327 12.8793 32.9337 12.8977C32.3347 12.916 31.7664 13.167 31.3493 13.5975C30.7943 14.1525 30.5847 14.9192 30.7101 15.6345C30.2259 15.5484 29.7268 15.6191 29.2856 15.8362C28.8443 16.0533 28.4838 16.4055 28.2566 16.8417C28.0293 17.2778 27.9472 17.7751 28.0221 18.2612C28.097 18.7472 28.325 19.1967 28.673 19.5442C29.5261 20.3972 30.8725 20.4342 31.779 19.6757L36.998 24.8927L39.9703 21.9225Z" fill="#FFE8B6"/>
<path d="M56.8752 41.8017C58.3613 40.3155 62.1189 33.9372 56.9183 28.7366C53.2944 25.1127 50.3735 25.3203 44.9406 23.9739C42.7124 23.2298 39.8058 20.5514 39.0638 19.8093C38.3197 20.5514 38.5807 23.2688 38.5807 23.2688C38.5807 23.2688 35.3432 23.5319 34.5991 24.274C35.3412 25.016 38.7945 28.2823 39.3988 29.8137C41.0227 34.969 40.8377 37.5919 44.4637 41.2138C50.4063 47.1564 55.3911 43.2879 56.8752 41.8017Z" fill="#C1694F"/>
<path d="M19.1843 33.9166C19.1843 37.89 25.5545 41.1111 21.5831 41.1111C20.6383 41.1111 19.7028 40.925 18.8299 40.5634C17.9571 40.2019 17.1639 39.6719 16.4959 39.0039C15.8278 38.3358 15.2979 37.5427 14.9363 36.6698C14.5748 35.7969 14.3887 34.8614 14.3887 33.9166C14.3887 32.9718 14.5748 32.0363 14.9363 31.1634C15.2979 30.2905 15.8278 29.4974 16.4959 28.8294C17.1639 28.1613 17.9571 27.6314 18.8299 27.2698C19.7028 26.9083 20.6383 26.7222 21.5831 26.7222C25.5565 26.7222 19.1843 29.9432 19.1843 33.9166ZM37.0368 53.4238C40.3236 55.0087 45.5386 51.025 43.9517 54.3139C43.189 55.8932 41.8301 57.1049 40.1741 57.6824C38.518 58.2599 36.7004 58.1558 35.121 57.3931C33.5417 56.6304 32.33 55.2716 31.7525 53.6155C31.175 51.9594 31.2791 50.1418 32.0418 48.5624C33.6287 45.2736 33.7499 51.8369 37.0368 53.4238Z" fill="#77B255"/>
<path d="M30.8333 39.0556C33.1038 39.0556 34.9444 37.215 34.9444 34.9445C34.9444 32.674 33.1038 30.8334 30.8333 30.8334C28.5628 30.8334 26.7222 32.674 26.7222 34.9445C26.7222 37.215 28.5628 39.0556 30.8333 39.0556Z" fill="#F4900C"/>
<path d="M49.3334 51.3889C50.4686 51.3889 51.3889 50.4686 51.3889 49.3334C51.3889 48.1981 50.4686 47.2778 49.3334 47.2778C48.1981 47.2778 47.2778 48.1981 47.2778 49.3334C47.2778 50.4686 48.1981 51.3889 49.3334 51.3889Z" fill="#F4900C"/>
<path d="M22.6112 49.3333C23.7465 49.3333 24.6668 48.413 24.6668 47.2777C24.6668 46.1425 23.7465 45.2222 22.6112 45.2222C21.476 45.2222 20.5557 46.1425 20.5557 47.2777C20.5557 48.413 21.476 49.3333 22.6112 49.3333Z" fill="#F4900C"/>
</g>
<defs>
<clipPath id="clip0_6_411">
<rect width="74" height="74" fill="white"/>
</clipPath>
</defs>
</svg>
