<svg width="80" height="80" viewBox="0 0 80 80" fill="none" xmlns="http://www.w3.org/2000/svg">
<path d="M62.4999 56.25C69.9999 46 5.62493 43.5 5.62493 43.5C5.62493 43.5 4.12493 45.625 5.24993 47.25C5.99993 48.375 6.62493 48.875 6.24993 50C5.87493 51.25 7.24993 52.5 7.49993 53.75C7.87493 55.75 6.74993 56.75 9.12493 57.875C9.99993 58.25 14.6249 59.875 14.8749 57.875C15.6249 59.625 17.1249 61.25 18.8749 62C20.6249 62.875 22.8749 63 24.4999 63.375C25.3749 65.375 26.6249 64.5 27.9999 65.5C29.4999 66.625 31.7499 67.625 33.6249 67.25C35.2499 67 35.1249 66.125 36.8749 67.5C36.7499 69.5 38.6249 68.625 39.9999 69.125C41.2499 69.5 46.4999 69.5 47.2499 69.75C47.9999 70.125 46.6249 71.75 47.7499 72.375C49.6249 73.375 51.8749 68.875 52.7499 68.125C52.6249 68.875 52.2499 72.25 53.9999 71.75C56.2499 71.125 55.6249 67.875 57.4999 67.25C59.6249 66.375 60.9999 65.125 61.4999 62.875C61.7499 62 61.7499 61.125 61.7499 60.375C63.1249 59.875 63.2499 57 62.4999 56.25Z" fill="#F7F2DF"/>
<path d="M34.6252 64.3751C32.5002 63.2501 30.5002 63.0001 30.0002 63.7501C29.5002 64.5001 30.8752 66.125 32.8752 67.25C35.0002 68.375 37.0002 68.625 37.5002 67.875C38.1252 67 36.7502 65.5001 34.6252 64.3751ZM15.0002 56.8751C12.8752 55.8751 10.7502 55.6251 10.3752 56.5001C9.87522 57.2501 11.2502 58.7501 13.5002 59.8751C15.6252 60.8751 17.7502 61.1251 18.1252 60.2501C18.5002 59.3751 17.1252 57.8751 15.0002 56.8751ZM23.2502 60.75C21.1252 59.75 19.0002 59.5001 18.6252 60.375C18.2502 61.25 19.6252 62.7501 21.7502 63.7501C23.8752 64.7501 26.0002 65 26.3752 64.125C26.7502 63.2501 25.3752 61.75 23.2502 60.75ZM48.3752 65.6251C48.6252 65.0001 48.7502 64.5 48.5002 64.125C47.8752 63.375 45.8752 63.8751 44.0002 65.2501C42.1252 66.6251 41.1252 68.375 41.7502 69.125C42.0002 69.5 42.6252 69.5001 43.3752 69.3751C42.8752 70.2501 42.7502 71 43.1252 71.375C43.7502 72.125 45.7502 71.3751 47.5002 69.8751C49.2502 68.3751 50.1252 66.5001 49.5002 65.8751C49.1252 65.6251 48.7502 65.5001 48.3752 65.6251ZM41.6252 62.625C41.6252 62.75 41.7502 62.875 41.7502 62.875C42.3752 63.625 44.3752 63.1251 46.2502 61.7501C48.1252 60.3751 49.1252 58.6251 48.5002 57.875C47.8752 57.125 45.8752 57.6251 44.0002 59.0001L43.6252 59.3751C43.6252 59.1251 43.6252 58.8751 43.3752 58.7501C43.0002 58.2501 42.0002 58.3751 40.8752 59.0001C40.5002 59.0001 40.0002 58.875 39.6252 58.875C37.2502 58.75 35.2502 59.5001 35.2502 60.375C35.2502 61 36.1252 61.6251 37.5002 61.8751C36.8752 62.8751 36.6252 63.75 37.1252 64.125C37.7502 64.875 39.7502 64.125 41.5002 62.625H41.6252ZM55.6252 60.0001C54.7502 59.6251 53.2502 61.0001 52.2502 63.0001C51.6252 64.2501 51.2502 67.3751 52.1252 67.5001C53.1252 67.5001 54.5002 66.5 55.5002 64.5C56.5002 62.375 56.5002 60.3751 55.6252 60.0001ZM61.8752 52.5001C61.0002 52.1251 59.5002 53.5001 58.5002 55.5001C57.5002 57.6251 57.5002 59.6251 58.3752 60.0001C59.2502 60.3751 60.7502 59 61.7502 57C62.7502 54.875 62.7502 52.8751 61.8752 52.5001ZM17.5002 55.6251C17.1252 56.5001 18.5002 58.0001 20.6252 59.0001C22.7502 60.0001 24.8752 60.2501 25.2502 59.3751C25.6252 58.5001 24.2502 57 22.1252 56C20.1252 55 18.0002 54.8751 17.5002 55.6251ZM12.5002 51.5001C12.3752 49.2501 11.5002 47.3751 10.5002 47.5001C9.50022 47.5001 8.87522 49.3751 9.00022 51.7501C9.12522 54.1251 10.0002 55.875 11.0002 55.75C11.8752 55.625 12.6252 53.7501 12.5002 51.5001ZM19.2502 53.25C20.6252 51.375 21.1252 49.5 20.3752 48.875C19.6252 48.375 17.7502 49.3751 16.3752 51.2501C15.0002 53.1251 14.5002 55.0001 15.2502 55.6251C16.1252 56.1251 17.8752 55 19.2502 53.25ZM36.1252 58.0001C36.1252 57.1251 34.2502 56.2501 31.8752 56.1251C29.5002 56.0001 27.5002 56.75 27.5002 57.625C27.5002 58.5 29.3752 59.375 31.7502 59.5C34.1252 59.625 36.1252 59.0001 36.1252 58.0001Z" fill="#E8E1D6"/>
<path d="M16.75 17.125H48.5V29.5H16.75V17.125Z" fill="#3F4237"/>
<path d="M47.75 26.375C50.875 32.25 44.75 39.25 32.625 39.25C20.625 39.25 14.5 32.25 17.5 26.375C19.75 22.125 26.25 19.5 32.625 19.5C39 19.625 45.5 22.25 47.75 26.375Z" fill="#3F4237"/>
<path d="M47.75 14.25C50.875 20.25 44.75 27.125 32.625 27.125C20.625 27.125 14.5 20.125 17.5 14.25C19.75 10.125 26.25 7.5 32.625 7.5C39 7.5 45.5 10.125 47.75 14.25Z" fill="#8CC63E"/>
<path d="M46.3749 14.25C48.8749 19.5 43.1249 25.5 32.6249 25.5C22.1249 25.5 16.3749 19.5 18.8749 14.25C20.7499 10.375 26.6249 7.875 32.6249 7.875C38.6249 7.875 44.4999 10.375 46.3749 14.25Z" fill="#FFEEE2"/>
<path d="M39.5002 14.875C40.1252 17.25 37.0002 19.625 32.6252 19.625C28.2502 19.625 25.2502 17.375 25.7502 14.875C26.2502 12.75 29.2502 11.375 32.6252 11.375C36.0002 11.375 39.0002 12.75 39.5002 14.875Z" fill="#FF5555"/>
<path d="M45.75 26.75H77.5V39.125H45.75V26.75Z" fill="#3F4237"/>
<path d="M76.75 36C79.875 41.875 73.75 48.875 61.625 48.875C49.625 48.875 43.5 41.875 46.5 36C48.75 31.75 55.25 29.125 61.625 29.125C68 29.125 74.5 31.875 76.75 36Z" fill="#3F4237"/>
<path d="M76.75 23.875C79.875 29.75 73.75 36.75 61.625 36.75C49.625 36.75 43.5 29.75 46.5 23.875C48.75 19.625 55.25 17 61.625 17C68 17 74.5 19.75 76.75 23.875Z" fill="#8CC63E"/>
<path d="M75.3749 23.875C77.8749 29.125 72.1249 35.125 61.6249 35.125C51.1249 35.125 45.3749 29.125 47.8749 23.875C49.7499 20 55.6249 17.5 61.6249 17.5C67.4999 17.625 73.4999 20 75.3749 23.875Z" fill="#FFEEE2"/>
<path d="M68.5002 24.5C69.1252 26.875 66.0002 29.25 61.6252 29.25C57.2502 29.25 54.2502 27 54.7502 24.5C55.2502 22.375 58.2502 21 61.6252 21C65.0002 21 68.0002 22.375 68.5002 24.5Z" fill="#FF5555"/>
<path d="M2.50018 39C2.37518 41.75 4.37518 45.375 7.25018 47.125C10.1252 48.875 52.7502 65.25 55.0002 62.875C57.1252 60.5 46.6252 47 40.7502 44.5C25.0002 37.75 2.50018 39 2.50018 39Z" fill="#EC6430"/>
<path d="M54.3751 58C54.2501 59.375 54.5001 63.25 55.0001 63C57.7501 61 65.3751 51.25 61.8751 43.375L54.3751 58Z" fill="#E8491F"/>
<path d="M2.5 39C2.5 39 9.5 30.25 12.125 29.25C19.5 26.625 19.75 26.75 25.25 28C30.875 29.25 56 35.5 61.75 43.25C63.25 45.25 55.875 58.5 54.25 59.5C52.75 60.25 44 57.75 32.25 50.125C18.875 41.5 5.375 39.75 2.5 39Z" fill="#F3813B"/>
<path d="M47.875 56.875C47.25 56.5 46.5 56.125 45.875 55.75C45.5 51.625 47 46.875 46.75 42.75C45.875 46.5 43.75 50.25 42.75 54C42.5 53.875 42.125 53.625 41.875 53.5C39.5 52 37 50.625 34.625 49.125C36.25 44.25 37.25 38.75 34.875 34C36 38.75 34.125 43.375 31.75 47.5C31.125 47.125 30.5 46.75 29.75 46.375C27.625 45.25 25.375 44.25 23.125 43.25C22.125 39 25.875 33.75 22 30.125C24.25 33.75 21.125 38 20.125 42C19 41.625 17.75 41.125 16.625 40.875C12 39.625 7.25 38.75 2.5 39C7 40.25 11.375 41.875 15.625 43.625C19.875 45.5 23.875 47.5 28 49.625C32.125 51.75 36.25 54 40.5 55.875C42.625 56.875 44.875 57.75 47.125 58.375C49.375 59 51.875 59.5 54.25 59.25C52 58.875 49.875 58 47.875 56.875Z" fill="#F4A24E"/>
</svg>
